<mxfile host="app.diagrams.net" modified="2024-04-03T13:03:48.300Z" agent="Mozilla/5.0 (Windows NT 10.0; Win64; x64) AppleWebKit/537.36 (KHTML, like Gecko) Chrome/123.0.0.0 Safari/537.36" version="24.2.1" etag="pZy3JSfekUbFG9q9-ygN" type="github">
  <diagram name="PÃ¡gina-1" id="jHyW5iBRNLKErFjzng6A">
    <mxGraphModel>
      <root>
        <mxCell id="0" />
        <mxCell id="1" parent="0" />
      </root>
    </mxGraphModel>
  </diagram>
</mxfile>
